<svg xmlns="http://www.w3.org/2000/svg" width="800" height="500" viewBox="0 0 800 500">
  <defs>
    <linearGradient id="bg3" x1="0" y1="0" x2="1" y2="1">
      <stop offset="0%" stop-color="#071424"/>
      <stop offset="100%" stop-color="#0d203a"/>
    </linearGradient>
  </defs>
  <rect width="800" height="500" rx="40" fill="url(#bg3)" />
  <rect x="80" y="90" width="220" height="120" rx="20" fill="#152a4b" stroke="#74d6ff" stroke-width="5" />
  <rect x="320" y="90" width="220" height="120" rx="20" fill="#152a4b" stroke="#74d6ff" stroke-width="5" />
  <rect x="560" y="90" width="140" height="120" rx="20" fill="#152a4b" stroke="#74d6ff" stroke-width="5" />
  <rect x="160" y="280" width="480" height="160" rx="24" fill="#163450" stroke="#74d6ff" stroke-width="5" />
  <path d="M200 150 C240 80 320 80 360 150" fill="none" stroke="#74d6ff" stroke-width="8"/>
  <path d="M440 150 C480 80 560 80 600 150" fill="none" stroke="#74d6ff" stroke-width="8"/>
  <circle cx="300" cy="130" r="18" fill="#74d6ff" />
  <circle cx="500" cy="130" r="18" fill="#74d6ff" />
  <line x1="240" y1="340" x2="560" y2="340" stroke="#74d6ff" stroke-width="10" stroke-linecap="round" />
  <circle cx="320" cy="340" r="16" fill="#74d6ff" />
  <circle cx="440" cy="340" r="16" fill="#74d6ff" />
  <circle cx="560" cy="340" r="16" fill="#74d6ff" />
</svg>
